<?xml version="1.0" encoding="UTF-8"?>
<svg width="14px" height="14px" viewBox="0 0 14 14" version="1.1" xmlns="http://www.w3.org/2000/svg" xmlns:xlink="http://www.w3.org/1999/xlink">
    <!-- Generator: Sketch 41.2 (35397) - http://www.bohemiancoding.com/sketch -->
    <title>Close: Small@2x</title>
    <desc>Created with Sketch.</desc>
    <defs></defs>
    <g id="Components" stroke="none" stroke-width="1" fill="none" fill-rule="evenodd">
        <g id="Icons" transform="translate(-700.000000, -520.000000)" fill="#061724">
            <g id="Dark" transform="translate(57.000000, 428.000000)">
                <g id="Close:-Small" transform="translate(643.000000, 92.000000)">
                    <path d="M8.84182442,7.0122729 L13.6158049,2.29805616 C14.128065,1.79433363 14.128065,0.976140262 13.6158049,0.472417736 C13.1035447,-0.0327277347 12.2711218,-0.0327277347 11.7588616,0.472417736 L7.01191716,5.15817558 L2.29770042,0.384195147 C1.79397789,-0.128065049 0.97720747,-0.128065049 0.472062,0.384195147 C-0.031660526,0.897878287 -0.031660526,1.72887816 0.472062,2.24113836 L5.15924279,6.98808284 L0.385262355,11.7022996 C-0.128420785,12.2060221 -0.128420785,13.0242155 0.385262355,13.527938 C0.897522551,14.0330835 1.72852242,14.0330835 2.24220556,13.527938 L6.9877271,8.84218015 L11.7019438,13.6161606 C12.2056664,14.1284208 13.0238597,14.1284208 13.5275823,13.6161606 C14.0327277,13.1024774 14.0327277,12.2714776 13.5275823,11.7577944 L8.84182442,7.0122729 Z" id="Fill-1"></path>
                </g>
            </g>
        </g>
    </g>
</svg>