<?xml version="1.0" encoding="UTF-8"?>
<svg width="25px" height="24px" viewBox="0 0 25 24" version="1.1" xmlns="http://www.w3.org/2000/svg" xmlns:xlink="http://www.w3.org/1999/xlink">
    <!-- Generator: Sketch 41.2 (35397) - http://www.bohemiancoding.com/sketch -->
    <title>Caution@2x</title>
    <desc>Created with Sketch.</desc>
    <defs></defs>
    <g id="Components" stroke="none" stroke-width="1" fill="none" fill-rule="evenodd">
        <g id="Icons" transform="translate(-380.000000, -450.000000)" fill="#061724">
            <g id="Silver-balck" transform="translate(57.000000, 428.000000)">
                <g id="Caution" transform="translate(323.000000, 22.000000)">
                    <path d="M24.2571057,18.9896833 L14.6754215,1.43694647 C13.6203688,-0.500737739 11.0121583,-0.467895634 9.95710568,1.46978858 L0.375421469,18.9732623 C-0.685104846,20.9259991 0.627210943,23.2632623 2.73457936,23.2632623 L21.8979478,23.2632623 C24.0053162,23.2632623 25.317632,20.9424202 24.2571057,18.9896833 L24.2571057,18.9896833 Z M10.9473684,6.4804559 C10.9473684,5.92443125 11.3993022,5.47368421 11.9509268,5.47368421 L12.6806521,5.47368421 C13.2349021,5.47368421 13.6842105,5.91511777 13.6842105,6.4804559 L13.6842105,12.6774388 C13.6842105,13.2334635 13.2322767,13.6842105 12.6806521,13.6842105 L11.9509268,13.6842105 C11.3966768,13.6842105 10.9473684,13.242777 10.9473684,12.6774388 L10.9473684,6.4804559 Z M12.3157895,19.1578947 C13.0715476,19.1578947 13.6842105,18.5452318 13.6842105,17.7894737 C13.6842105,17.0337156 13.0715476,16.4210526 12.3157895,16.4210526 C11.5600314,16.4210526 10.9473684,17.0337156 10.9473684,17.7894737 C10.9473684,18.5452318 11.5600314,19.1578947 12.3157895,19.1578947 Z" id="Combined-Shape"></path>
                </g>
            </g>
        </g>
    </g>
</svg>