<?xml version="1.0" encoding="UTF-8"?>
<svg width="25px" height="25px" viewBox="0 0 25 25" version="1.1" xmlns="http://www.w3.org/2000/svg" xmlns:xlink="http://www.w3.org/1999/xlink">
    <!-- Generator: Sketch 41.2 (35397) - http://www.bohemiancoding.com/sketch -->
    <title>Warning@2x</title>
    <desc>Created with Sketch.</desc>
    <defs></defs>
    <g id="Components" stroke="none" stroke-width="1" fill="none" fill-rule="evenodd">
        <g id="Icons" transform="translate(-477.000000, -174.000000)" fill="#FFFFFF">
            <g id="White" transform="translate(76.000000, 164.000000)">
                <g id="Warning" transform="translate(401.000000, 10.000000)">
                    <path d="M12.5,0 C5.59583333,0 0,5.59583333 0,12.5 C0,19.4041667 5.59583333,25 12.5,25 C19.4041667,25 25,19.4041667 25,12.5 C25,5.59583333 19.4041667,0 12.5,0 L19.2776406,7.84776476 M12.5,8.3094279 C13.2670622,8.3094279 13.8888889,7.68760116 13.8888889,6.92053901 C13.8888889,6.15347686 13.2670622,5.53165012 12.5,5.53165012 C11.7329378,5.53165012 11.1111111,6.15347686 11.1111111,6.92053901 C11.1111111,7.68760116 11.7329378,8.3094279 12.5,8.3094279 Z M11.1588862,12.1163058 C11.1588862,11.5611521 11.6077428,11.1111111 12.167477,11.1111111 L12.9439981,11.1111111 C13.5010275,11.1111111 13.952589,11.5591473 13.952589,12.1163058 L13.952589,18.4392497 C13.952589,18.9944034 13.5037323,19.4444444 12.9439981,19.4444444 L12.167477,19.4444444 C11.6104477,19.4444444 11.1588862,18.9964083 11.1588862,18.4392497 L11.1588862,12.1163058 Z" id="alert" transform="translate(12.500000, 12.500000) scale(1, -1) translate(-12.500000, -12.500000) "></path>
                </g>
            </g>
        </g>
    </g>
</svg>