<?xml version="1.0" encoding="UTF-8"?>
<svg width="26px" height="26px" viewBox="0 0 26 26" version="1.1" xmlns="http://www.w3.org/2000/svg" xmlns:xlink="http://www.w3.org/1999/xlink">
    <!-- Generator: Sketch 41.2 (35397) - http://www.bohemiancoding.com/sketch -->
    <title>Information@2x</title>
    <desc>Created with Sketch.</desc>
    <defs></defs>
    <g id="Components" stroke="none" stroke-width="1" fill="none" fill-rule="evenodd">
        <g id="Icons" transform="translate(-578.000000, -449.000000)" fill="#061724">
            <g id="Silver-balck" transform="translate(57.000000, 428.000000)">
                <g id="Information" transform="translate(521.000000, 21.000000)">
                    <path d="M0,13 C0,20.1803333 5.81966667,26 13,26 C20.1803333,26 26,20.1803333 26,13 C26,5.81966667 20.1803333,0 13,0 C5.81966667,0 0,5.81966667 0,13 Z M13,8.66666667 C13.7977446,8.66666667 14.4444444,8.01996686 14.4444444,7.22222222 C14.4444444,6.42447758 13.7977446,5.77777778 13,5.77777778 C12.2022554,5.77777778 11.5555556,6.42447758 11.5555556,7.22222222 C11.5555556,8.01996686 12.2022554,8.66666667 13,8.66666667 Z M11.5555556,12.5497324 C11.5555556,12.0006637 12.0069444,11.5555556 12.5497472,11.5555556 L13.4502528,11.5555556 C13.9993297,11.5555556 14.4444444,11.9972518 14.4444444,12.5497324 L14.4444444,19.2280454 C14.4444444,19.7771141 13.9930556,20.2222222 13.4502528,20.2222222 L12.5497472,20.2222222 C12.0006703,20.2222222 11.5555556,19.780526 11.5555556,19.2280454 L11.5555556,12.5497324 Z" id="Combined-Shape"></path>
                </g>
            </g>
        </g>
    </g>
</svg>